<svg xmlns="http://www.w3.org/2000/svg" width="66" height="66"><path d="m20.348 11.14 3.301-.005c2.297.004 4.594.025 6.891.062 3.515.053 7.025.041 10.54.022 2.235.012 4.47.027 6.705.047l3.18-.012c4.625.105 7.272.24 11.192 2.838 2.295 3.62 2.497 5.904 2.55 10.178l.046 2.063c.043 2.16.052 4.319.06 6.48.023 1.47.048 2.94.076 4.412.062 3.591.095 7.183.111 10.775h-6l-.625 2.438C57 53 57 53 54.125 54 51 54 51 54 48.625 52.75 47 51 47 51 47 48H19l-2 4c-1 1-1 1-4.563 1.063L9 53l-2-5H1c-.098-10.472.742-16.946 8-25H4c-.86-2.38-1.205-3.525-.184-5.892 4.727-6.04 9.175-6.111 16.532-5.967Z" fill="#E2635B"/><path d="m24 23 1 22 1-22h12v22h10l-1 3H19l-2 4c-1 1-1 1-4.563 1.063L9 53l-2-5H1C.92 39.428.978 31.708 6.48 24.7 11.791 21.116 17.91 22.46 24 23Z" fill="#DFDEFC"/><path d="M26 23h12v22l-12 1V23Z" fill="#9594F5"/><path d="M41 18h16v13H41V18Z" fill="#A2A2F7"/><path d="M19.074 24.727C21 25 21 25 22 26c.133 1.813.133 1.813.125 4l.008 2.188C22 34 22 34 21 35c-2 .04-4 .043-6 0v2h-4v-2H7c.917-8.023 4.39-10.6 12.074-10.273Z" fill="#7F7F9F"/><path d="M60 13c2.953 2.336 3.921 3.524 4.546 7.3l.063 3.872.05 2.068c.049 2.17.07 4.34.091 6.51.028 1.475.058 2.95.09 4.426.074 3.608.123 7.215.16 10.824h-6l-2-5 3-2c.418-2.91.418-2.91.293-6.32l-.03-3.809-.075-3.996c-.016-1.34-.03-2.68-.042-4.02-.035-3.285-.084-6.57-.146-9.855Z" fill="#F05746"/><path d="M16 42c2.616 2.616 2.777 4.353 3 8-1 1.875-1 1.875-3 3-3.563.375-3.563.375-7 0-2.155-3.233-2.469-4.252-2-8 2.268-3.655 4.966-3.43 9-3Z" fill="#313030"/><path d="M18 45h30l-1 3H18v-3Z" fill="#C8BDE5"/><path d="M56 44h2c.75 2.75.75 2.75 1 6-1.563 2.438-1.563 2.438-4 4-3.699-.148-5.358-.358-8-3 0-3 0-3 1.5-4.688L50 45l2 1v3h2l2-5Z" fill="#454242"/><path d="M12 26h8v7h-9l1-7Z" fill="#BDBDFA"/><path d="M50 19h5l-3 12h-5l3-12Z" fill="#C4C4FA"/><path d="M63 17h1l1 31h-6l-1-3h5V17Z" fill="#F45B4B"/><path d="m57 43-3 7-3-1c-.688-2.063-.688-2.063-1-4l-1 3h-2c2.227-6.203 3.652-6.242 10-5Z" fill="#837B82"/><path d="M41 18h6l-4 13h-2V18Z" fill="#9090F0"/><path d="M13.125 41.875 16 42l-2 3c.308 2.153.308 2.153 1 4-3.623 1.208-4.641.543-8-1 .837-4.184 1.51-5.94 6.125-6.125Z" fill="#8B8A96"/><path d="M12 15h8v5h-8v-5Z" fill="#ABABF5"/><path d="m57 45 2 1c-.313 2.875-.313 2.875-1 6-3 2-3 2-5.688 1.625L50 53l3-2c2.331-2.062 2.98-2.942 4-6Z" fill="#343335"/><path d="M12 26h5l-2 7h-4l1-7Z" fill="#ABABF8"/><path d="M47 18c1.188 3.43.802 5.378-.438 8.75l-.87 2.422L45 31h-2c.497-4.973 1.553-8.638 4-13Z" fill="#C0C0FA"/><path d="m7 48 8 1v2l-7 1-1-4Z" fill="#464545"/><path d="M58 45h7v3h-6l-1-3Z" fill="#CBC0E6"/><path d="M1 45h6v3H1v-3Z" fill="#C9C9F2"/><path d="M18 44v2h-2l-1 3-1-3-3-2c3.133-1.044 3.99-.934 7 0Z" fill="#464546"/></svg>