<svg xmlns="http://www.w3.org/2000/svg" width="32" height="32" fill="none" xmlns:v="https://vecta.io/nano"><g clip-path="url(#A)" fill="#101828"><path fill-rule="evenodd" d="M1 12a1 1 0 0 0-.779.374 1 1 0 0 0-.197.842l3.304 14.868A5 5 0 0 0 8.208 32h11.584a5 5 0 0 0 4.88-3.916l.262-1.18a6 6 0 0 0 6.96-4.597 6 6 0 0 0-4.36-7.111l.442-1.98a1 1 0 0 0-.197-.842A1 1 0 0 0 27 12H1zm25 13c-.212 0-.423-.017-.632-.05l1.734-7.796a4 4 0 0 1 2.85 4.401A4 4 0 0 1 26 25zM5.28 27.65L2.246 14h23.508L22.72 27.65A3 3 0 0 1 19.792 30H8.208a3 3 0 0 1-2.928-2.35z"/><path d="M8.8 1.6l-.006.008-.028.038-.408.62a4 4 0 0 0-.282.534c-.052.12-.068.184-.074.206v.008a1.2 1.2 0 0 0 .182.496c.15.266.356.544.616.89l.02.024.74 1.086c.224.4.44.91.44 1.49 0 .376-.13.736-.238.988a6 6 0 0 1-.404.776l-.506.764-.036.05-.01.016-.004.004a1 1 0 0 1-1.4.202A1 1 0 0 1 7.2 8.4l.006-.008.028-.038.408-.62a4 4 0 0 0 .282-.534c.052-.12.068-.184.074-.206a1.2 1.2 0 0 0-.18-.504A8 8 0 0 0 7.2 5.6l-.02-.024a10 10 0 0 1-.74-1.086A3.06 3.06 0 0 1 6 3c0-.376.13-.736.238-.988.118-.276.268-.548.404-.776l.506-.764.05-.07a1 1 0 0 1 .658-.391A1 1 0 0 1 8.598.2 1 1 0 0 1 8.8 1.6zm6 0l-.006.008-.028.038-.408.62a4 4 0 0 0-.282.534c-.052.12-.068.184-.074.206v.008a1.2 1.2 0 0 0 .182.496c.15.266.356.544.616.89l.02.024.74 1.086c.224.4.44.91.44 1.49 0 .376-.13.736-.238.988-.116.268-.251.528-.404.776l-.506.764-.036.05-.01.016-.004.004a1 1 0 0 1-1.4.202 1 1 0 0 1-.202-1.4l.006-.008.028-.038.408-.62a4 4 0 0 0 .282-.534c.052-.12.068-.184.074-.206a1.2 1.2 0 0 0-.18-.504c-.186-.31-.392-.608-.618-.89l-.02-.024c-.27-.345-.517-.708-.74-1.086A3.06 3.06 0 0 1 12 3c0-.376.13-.736.238-.988.118-.276.268-.548.404-.776l.506-.764.05-.07a1 1 0 0 1 .658-.391 1 1 0 0 1 .742.189 1 1 0 0 1 .202 1.4zm6 0l-.006.008-.028.038-.408.62a4 4 0 0 0-.282.534c-.052.12-.068.184-.074.206v.008a1.2 1.2 0 0 0 .182.496c.15.266.356.544.616.89l.02.024.74 1.086c.224.4.44.91.44 1.49 0 .376-.13.736-.238.988-.116.268-.251.528-.404.776l-.504.764-.038.05-.01.016-.004.004a1 1 0 0 1-1.4.202 1 1 0 0 1-.202-1.4l.006-.008.028-.038.408-.62a4 4 0 0 0 .282-.534c.052-.12.068-.184.074-.206a1.2 1.2 0 0 0-.18-.504 7.99 7.99 0 0 0-.618-.89l-.02-.024c-.27-.345-.517-.708-.74-1.086A3.06 3.06 0 0 1 18 3c0-.376.13-.736.238-.988.118-.276.268-.548.404-.776l.506-.764.05-.07a1 1 0 0 1 .658-.391 1 1 0 0 1 .742.189 1 1 0 0 1 .202 1.4z"/></g><defs><clipPath id="A"><path fill="#fff" d="M0 0h32v32H0z"/></clipPath></defs></svg>