<svg xmlns="http://www.w3.org/2000/svg" width="32" height="32" fill="none" stroke="#101828" stroke-width="2" stroke-linejoin="round" xmlns:v="https://vecta.io/nano"><path d="M26.667 5.333H5.333C3.861 5.333 2.667 6.527 2.667 8v14.667c0 1.473 1.194 2.667 2.667 2.667h21.333c1.473 0 2.667-1.194 2.667-2.667V8c0-1.473-1.194-2.667-2.667-2.667z"/><path d="M17.333 10.667h-8C8.597 10.667 8 11.264 8 12v6.667C8 19.403 8.597 20 9.333 20h8c.736 0 1.333-.597 1.333-1.333V12c0-.736-.597-1.333-1.333-1.333z"/><path d="M24 10.667V20M8 25.333V28m16-2.667V28" stroke-linecap="round"/></svg>