<svg width="20" height="20" fill="none" xmlns="http://www.w3.org/2000/svg"><g clip-path="url(#a)"><path d="M8.75 3.125a.625.625 0 0 1 .625-.625h8.75a.625.625 0 0 1 .625.625v1.25a.625.625 0 0 1-.625.625h-8.75a.625.625 0 0 1-.625-.625v-1.25ZM0 15a3.75 3.75 0 1 1 7.5 0A3.75 3.75 0 0 1 0 15Zm8.75-1.875a.625.625 0 0 1 .625-.625h8.75a.624.624 0 0 1 .625.625v1.25a.624.624 0 0 1-.625.625h-8.75a.625.625 0 0 1-.625-.625v-1.25Zm0-6.25a.625.625 0 0 1 .625-.625h6.25a.625.625 0 1 1 0 1.25h-6.25a.625.625 0 0 1-.625-.625Zm0 10a.625.625 0 0 1 .625-.625h6.25a.624.624 0 1 1 0 1.25h-6.25a.625.625 0 0 1-.625-.625Zm-5-15.625a3.75 3.75 0 1 0 0 7.5 3.75 3.75 0 0 0 0-7.5Zm0 5.625a1.875 1.875 0 1 1 0-3.75 1.875 1.875 0 0 1 0 3.75Z" fill="#101828"/></g><defs><clipPath id="a"><path fill="#fff" d="M0 0h20v20H0z"/></clipPath></defs></svg>