<svg xmlns="http://www.w3.org/2000/svg" width="32" height="32" fill="none" stroke="#101828" stroke-width="2.4" stroke-linejoin="round" xmlns:v="https://vecta.io/nano"><path d="M8 25.333h5.333M24 25.345v-.012M2.667 8c0-4.413.92-5.333 5.333-5.333h16c4.413 0 5.333.92 5.333 5.333v16c0 4.413-.92 5.333-5.333 5.333H8c-4.413 0-5.333-.92-5.333-5.333V8z" stroke-linecap="round"/><path d="M16 18.667c2.945 0 5.333-2.388 5.333-5.333S18.946 8 16 8s-5.333 2.388-5.333 5.333 2.388 5.333 5.333 5.333z"/><path d="M20.667 13.333h2M16 18v2m-4.667-6.667h-2M16 8.667v-2" stroke-linecap="round"/></svg>