<svg xmlns="http://www.w3.org/2000/svg" width="32" height="32" fill="none" xmlns:v="https://vecta.io/nano"><path d="M0 8s0-4 4-4h24s4 0 4 4v12s0 4-4 4h-8c0 1.333.167 2.333.5 3H22a1 1 0 0 1 1 1 1 1 0 0 1-1 1H10a1 1 0 0 1-1-1 1 1 0 0 1 1-1h1.5c.333-.667.5-1.667.5-3H4s-4 0-4-4V8zm2.796-1.71a1.52 1.52 0 0 0-.508.604A3 3 0 0 0 2 8.02V20c0 .65.156 1.004.29 1.204.14.208.341.377.604.508a3 3 0 0 0 1.076.286l.05.002H28c.65 0 1.004-.156 1.204-.29a1.52 1.52 0 0 0 .508-.604 3 3 0 0 0 .286-1.076l.002-.05V8c0-.65-.156-1.004-.29-1.204a1.52 1.52 0 0 0-.604-.508A3 3 0 0 0 27.98 6H4c-.65 0-1.004.156-1.204.29z" fill="#101828"/></svg>