<svg xmlns="http://www.w3.org/2000/svg" width="32" height="32" fill="none" xmlns:v="https://vecta.io/nano"><g clip-path="url(#A)"><path d="M25 4a5 5 0 0 0-5 5 1 1 0 0 1-1 1 1 1 0 0 1-1-1 7 7 0 0 1 4.321-6.467A7 7 0 0 1 29.95 4.05a7 7 0 0 1 1.517 7.629A7 7 0 0 1 25 16H1a1 1 0 0 1-.707-.293A1 1 0 0 1 0 15a1 1 0 0 1 1-1h24a5 5 0 0 0 5-5 5 5 0 0 0-5-5zM11 6a2 2 0 0 0-2 2 1 1 0 0 1-1 1 1 1 0 0 1-1-1 4 4 0 0 1 2.469-3.696 4 4 0 0 1 4.359.867 4 4 0 0 1 .867 4.359A4 4 0 0 1 11 12H1a1 1 0 0 1-.707-.293A1 1 0 0 1 0 11a1 1 0 0 1 1-1h10a2 2 0 0 0 2-2 2 2 0 0 0-2-2zM0 19a1 1 0 0 1 1-1h20.084a6 6 0 0 1 5.543 3.704 6 6 0 0 1-1.301 6.539 6 6 0 0 1-6.539 1.301A6 6 0 0 1 15.084 24a1 1 0 0 1 1-1 1 1 0 0 1 1 1 4 4 0 0 0 2.469 3.695 4 4 0 0 0 4.359-.867 4 4 0 0 0 .867-4.359A4 4 0 0 0 21.084 20H1a1 1 0 0 1-.707-.293A1 1 0 0 1 0 19z" fill="#101828"/></g><defs><clipPath id="A"><path fill="#fff" d="M0 0h32v32H0z"/></clipPath></defs></svg>